<svg width="108" height="37" viewBox="0 0 108 37" fill="none" xmlns="http://www.w3.org/2000/svg">
<path d="M25.2176 33.9635H1.42601C0.60044 33.9635 2.28882e-05 33.2941 2.28882e-05 32.5503V6.29408C2.28882e-05 5.4759 0.675492 4.88086 1.42601 4.88086H25.1425C25.9681 4.88086 26.5685 5.55027 26.5685 6.29408V32.4759C26.6435 33.2941 25.9681 33.9635 25.2176 33.9635Z" fill="#9AE2D6"/>
<path d="M27.844 31.2861H4.12752C3.30194 31.2861 2.70153 30.6167 2.70153 29.8729V3.69105C2.62648 2.87288 3.30194 2.27783 4.12752 2.27783H27.844C28.6695 2.27783 29.27 2.87288 29.27 3.69105V29.8729C29.27 30.6167 28.6695 31.2861 27.844 31.2861Z" fill="#1AAB9A"/>
<path d="M26.1188 27.8642H11.4836C10.9583 27.8642 10.2829 27.7898 9.60739 27.5667C8.93188 27.3435 8.33147 27.046 7.73104 26.5997C7.13063 26.1535 6.68031 25.5584 6.30506 24.8146C5.9298 24.0708 5.70464 23.2526 5.70464 22.2113V7.70716C5.70464 7.40964 5.77969 7.1865 5.85475 6.88898C5.9298 6.66583 6.0799 6.4427 6.30506 6.21955C6.45516 6.07079 6.68031 5.92204 6.98053 5.77327C7.20568 5.69889 7.50589 5.62451 7.8061 5.62451H26.1188V9.71542H9.90756V22.2113C9.90756 22.732 10.0576 23.1039 10.3579 23.4014C10.6581 23.6989 11.0334 23.8476 11.5587 23.8476H26.1939V27.8642H26.1188ZM24.3176 18.7898H11.4836V14.7733H24.3176V18.7898Z" fill="white"/>
<path d="M55.9889 21.1703C55.9889 21.9885 55.9138 22.6579 55.6886 23.3273C55.4635 23.9967 55.2383 24.5174 54.8631 25.0381C54.4878 25.5587 54.1126 25.9306 53.6622 26.3025C53.2119 26.6744 52.7617 26.8976 52.2363 27.1207C51.7859 27.3438 51.2605 27.4926 50.8103 27.567C50.36 27.6413 49.8346 27.7157 49.3842 27.7157H33.7734V23.6992H49.4594C50.2099 23.6992 50.8103 23.476 51.2605 23.0298C51.7109 22.5835 51.936 21.9885 51.936 21.1703C51.936 20.7984 51.861 20.4265 51.7859 20.129C51.7109 19.8314 51.4858 19.5339 51.2605 19.3107C51.0354 19.0876 50.8103 18.9389 50.51 18.7901C50.2099 18.6413 49.8346 18.6413 49.4594 18.6413H40.0778C39.4023 18.6413 38.7269 18.4926 37.9764 18.2695C37.2259 18.0463 36.4754 17.6744 35.8749 17.1538C35.1995 16.6331 34.6741 15.9637 34.2237 15.1455C33.7734 14.3273 33.5483 13.286 33.5483 12.0959C33.5483 10.9058 33.7734 9.8645 34.2237 9.04632C34.6741 8.22814 35.1995 7.55871 35.8749 7.03805C36.5504 6.5174 37.2259 6.14549 37.9764 5.92235C38.7269 5.69921 39.4774 5.55045 40.0778 5.55045H53.8874V9.56698H40.0778C39.3273 9.56698 38.7269 9.79012 38.2765 10.2364C37.8263 10.6826 37.6011 11.2778 37.6011 12.0959C37.6011 12.8397 37.8263 13.5091 38.2765 13.9554C38.7269 14.4017 39.3273 14.6248 40.0778 14.6248H49.3842C49.8346 14.6248 50.2849 14.6992 50.8103 14.7736C51.3356 14.8479 51.7859 15.0711 52.2363 15.2942C52.6865 15.5174 53.2119 15.815 53.5872 16.1869C54.0375 16.5587 54.4128 16.9306 54.713 17.4513C55.0882 17.9719 55.3133 18.4926 55.5386 19.0876C55.8387 19.6826 55.9889 20.4265 55.9889 21.1703ZM80.4558 12.9885C80.4558 13.881 80.3057 14.6992 80.0806 15.443C79.8554 16.1869 79.5552 16.7819 79.1799 17.3769C78.8047 17.8976 78.3544 18.4182 77.829 18.7901C77.3036 19.162 76.7782 19.5339 76.253 19.757C75.7276 19.9802 75.1272 20.2034 74.6018 20.2778C74.0013 20.4265 73.476 20.4265 73.0257 20.4265H71.2995V27.7157H67.2467V20.4265H65.5955C65.0701 20.4265 64.5448 20.3522 64.0194 20.2778C63.419 20.129 62.8936 19.9802 62.3683 19.757C61.843 19.5339 61.2425 19.162 60.7922 18.7901C60.2668 18.4182 59.8165 17.8976 59.4413 17.3769C59.066 16.8563 58.7658 16.1869 58.5406 15.443C58.3155 14.6992 58.1654 13.881 58.1654 12.9885V5.55045H62.2182V12.9885C62.2182 13.5091 62.2932 13.9554 62.4433 14.4017C62.5935 14.8479 62.8186 15.1455 63.1188 15.443C63.419 15.7406 63.7943 15.9637 64.2446 16.1125C64.6949 16.2612 65.1452 16.3356 65.6705 16.3356H73.0257C73.4009 16.2612 73.7762 16.1869 74.2266 16.1125C74.6018 16.0381 74.9771 15.815 75.3523 15.5918C75.6525 15.3686 75.9527 14.9967 76.1779 14.6248C76.403 14.1785 76.4781 13.6579 76.4781 12.9141V5.47607H80.5309V12.9885H80.4558ZM105.598 21.1703C105.598 21.9885 105.524 22.6579 105.298 23.3273C105.073 23.9967 104.848 24.5174 104.472 25.0381C104.173 25.5587 103.722 25.9306 103.271 26.3025C102.822 26.6744 102.371 26.8976 101.846 27.1207C101.395 27.3438 100.87 27.4926 100.42 27.567C99.8945 27.6413 99.4439 27.7157 98.9933 27.7157H83.3079V23.6992H99.0687C99.8191 23.6992 100.42 23.476 100.87 23.0298C101.32 22.5835 101.545 21.9885 101.545 21.1703C101.545 20.7984 101.471 20.4265 101.395 20.129C101.32 19.8314 101.096 19.5339 100.87 19.3107C100.645 19.0876 100.42 18.9389 100.12 18.7901C99.8191 18.6413 99.4439 18.6413 99.0687 18.6413H89.7623C89.0868 18.6413 88.4113 18.4926 87.6608 18.2695C86.9103 18.0463 86.1598 17.6744 85.5594 17.1538C84.8839 16.6331 84.3585 15.9637 83.9083 15.1455C83.458 14.3273 83.2327 13.286 83.2327 12.0959C83.2327 10.9058 83.458 9.8645 83.9083 9.04632C84.3585 8.22814 84.8839 7.55871 85.5594 7.03805C86.2349 6.5174 86.9103 6.14549 87.6608 5.92235C88.4113 5.69921 89.1618 5.55045 89.7623 5.55045H103.572V9.56698H89.7623C89.0118 9.56698 88.4113 9.79012 87.9611 10.2364C87.5107 10.6826 87.2856 11.2778 87.2856 12.0959C87.2856 12.8397 87.5107 13.5091 87.9611 13.9554C88.4113 14.4017 89.0118 14.6248 89.7623 14.6248H99.0687C99.5193 14.6248 99.969 14.6992 100.495 14.7736C101.02 14.8479 101.471 15.0711 101.92 15.2942C102.371 15.5174 102.896 15.815 103.271 16.1869C103.722 16.5587 104.097 16.9306 104.472 17.4513C104.773 17.9719 105.073 18.4926 105.298 19.0876C105.524 19.6826 105.598 20.4265 105.598 21.1703Z" fill="black"/>
</svg>
