<svg width="16" height="16" viewBox="0 0 16 16" fill="none" xmlns="http://www.w3.org/2000/svg">
<path d="M5.5646 2.62842H10.1501C11.8969 2.62842 13.3162 4.04773 13.3162 5.79458V10.3801C13.3162 11.2198 12.9827 12.0251 12.3889 12.6189C11.7951 13.2127 10.9898 13.5462 10.1501 13.5462H5.5646C3.81775 13.5462 2.39844 12.1269 2.39844 10.3801V5.79458C2.39844 4.95487 2.73201 4.14954 3.32579 3.55577C3.91956 2.962 4.72489 2.62842 5.5646 2.62842ZM5.45542 3.7202C4.93422 3.7202 4.43436 3.92725 4.06582 4.2958C3.69727 4.66434 3.49022 5.1642 3.49022 5.68541V10.4892C3.49022 11.5756 4.3691 12.4544 5.45542 12.4544H10.2593C10.7805 12.4544 11.2803 12.2474 11.6489 11.8788C12.0174 11.5103 12.2245 11.0104 12.2245 10.4892V5.68541C12.2245 4.59908 11.3456 3.7202 10.2593 3.7202H5.45542ZM10.7233 4.53903C10.9042 4.53903 11.0778 4.61093 11.2058 4.73889C11.3338 4.86686 11.4056 5.04045 11.4056 5.2214C11.4056 5.40235 11.3338 5.57594 11.2058 5.70392C11.0778 5.83185 10.9042 5.90376 10.7233 5.90376C10.5423 5.90376 10.3687 5.83185 10.2407 5.70392C10.1128 5.57594 10.0409 5.40235 10.0409 5.2214C10.0409 5.04045 10.1128 4.86686 10.2407 4.73889C10.3687 4.61093 10.5423 4.53903 10.7233 4.53903ZM7.85734 5.35787C8.58124 5.35787 9.27547 5.64544 9.78738 6.15729C10.2992 6.6692 10.5868 7.36343 10.5868 8.08732C10.5868 8.81122 10.2992 9.50545 9.78738 10.0174C9.27547 10.5292 8.58124 10.8168 7.85734 10.8168C7.13345 10.8168 6.43921 10.5292 5.92731 10.0174C5.41546 9.50545 5.12789 8.81122 5.12789 8.08732C5.12789 7.36343 5.41546 6.6692 5.92731 6.15729C6.43921 5.64544 7.13345 5.35787 7.85734 5.35787ZM7.85734 6.44965C7.423 6.44965 7.00647 6.6222 6.69934 6.92932C6.39222 7.23645 6.21967 7.65299 6.21967 8.08732C6.21967 8.52166 6.39222 8.9382 6.69934 9.24532C7.00647 9.55245 7.423 9.725 7.85734 9.725C8.29168 9.725 8.70822 9.55245 9.01534 9.24532C9.32247 8.9382 9.49502 8.52166 9.49502 8.08732C9.49502 7.65299 9.32247 7.23645 9.01534 6.92932C8.70822 6.6222 8.29168 6.44965 7.85734 6.44965Z" fill="#111111"/>
</svg>
