<svg width="25" height="24" viewBox="0 0 25 24" fill="none" xmlns="http://www.w3.org/2000/svg">
<path d="M12.095 23C18.1701 23 23.095 18.0751 23.095 12C23.095 5.92487 18.1701 1 12.095 1C6.01984 1 1.09497 5.92487 1.09497 12C1.09497 18.0751 6.01984 23 12.095 23Z" stroke="white" stroke-width="2" stroke-miterlimit="10" stroke-linecap="round" stroke-linejoin="round"/>
<path d="M2.09497 8H22.095M2.09497 16H22.095M12.095 23C11.005 23 7.59497 19.031 7.59497 12C7.59497 5.031 10.935 1 12.095 1C13.255 1 16.595 5.031 16.595 12C16.595 19.031 13.185 23 12.095 23Z" stroke="white" stroke-width="2" stroke-miterlimit="10" stroke-linecap="round" stroke-linejoin="round"/>
</svg>
