<svg width="94" height="30" viewBox="0 0 94 30" fill="none" xmlns="http://www.w3.org/2000/svg">
<path d="M24.75 0.91748C25.4837 0.91748 26.0174 1.44629 26.0176 2.17334V25.4468C26.0175 26.1078 25.4837 26.7026 24.75 26.7026H3.66897C2.9353 26.7026 2.40155 26.1078 2.40139 25.4468V2.17334C2.33496 1.44633 2.93533 0.917541 3.66897 0.91748H24.75ZM6.9385 3.89307C6.67181 3.89314 6.40513 3.95882 6.2051 4.0249C5.93828 4.15712 5.73794 4.28917 5.60452 4.42139C5.40438 4.61974 5.27084 4.81874 5.20413 5.01709C5.13747 5.28123 5.07137 5.4795 5.07132 5.74365V18.6362C5.07132 19.5618 5.27096 20.2895 5.60452 20.9507C5.93808 21.6118 6.3384 22.141 6.8721 22.5376C7.40579 22.9343 7.93963 23.1986 8.54007 23.397C9.14048 23.5953 9.74111 23.6616 10.208 23.6616H23.2832V20.0913H10.2744C9.80761 20.0913 9.47381 19.9592 9.20706 19.6948C8.94016 19.4304 8.80667 19.0991 8.80667 18.6362V7.52881H23.2168V3.89307H6.9385ZM10.208 12.0249V15.5952H21.6162V12.0249H10.208Z" fill="white"/>
<path d="M1.70117 25.4468C1.70141 26.4763 2.53102 27.4027 3.66895 27.4028H23.6162V27.7603C23.6829 28.4874 23.083 29.0823 22.416 29.0825H1.26758C0.533735 29.0825 1.6171e-06 28.4878 0 27.8267V4.48779C2.20807e-05 3.76054 0.60046 3.23193 1.26758 3.23193H1.70117V25.4468ZM22.3486 3.23193C23.0824 3.23193 23.6162 3.82665 23.6162 4.48779V26.7026H3.66895C2.93535 26.7025 2.40152 26.1077 2.40137 25.4468V3.23193H22.3486ZM6.93848 3.89307C6.87176 3.89309 6.80494 3.89757 6.73926 3.90479C6.60801 3.9192 6.48079 3.94516 6.36621 3.97607C6.30899 3.9915 6.25501 4.00841 6.20508 4.0249C5.93836 4.15708 5.7379 4.28921 5.60449 4.42139C5.4044 4.6197 5.27081 4.81878 5.2041 5.01709C5.17077 5.14918 5.13717 5.26474 5.1123 5.38037C5.09986 5.43823 5.09025 5.49622 5.08301 5.55615C5.07578 5.61593 5.0713 5.67771 5.07129 5.74365V18.6362C5.07129 18.7519 5.07397 18.8644 5.08008 18.9741C5.11672 19.6329 5.26101 20.1897 5.48535 20.6997C5.52271 20.7846 5.56282 20.8681 5.60449 20.9507C5.72966 21.1988 5.86421 21.4283 6.01172 21.6392C6.20805 21.9199 6.42731 22.1676 6.67773 22.3823C6.74049 22.4361 6.80526 22.4879 6.87207 22.5376C7.00545 22.6367 7.13899 22.7274 7.27344 22.811C7.60959 23.0202 7.95195 23.1849 8.31738 23.3198C8.39054 23.3468 8.46493 23.3722 8.54004 23.397C8.76501 23.4713 8.99 23.5272 9.20801 23.5679C9.57179 23.6358 9.91607 23.6616 10.208 23.6616H23.2832V20.0913H10.2744C10.2161 20.0913 10.1597 20.0896 10.1055 20.0854C9.77951 20.0607 9.52396 19.961 9.31055 19.7876C9.27495 19.7587 9.24039 19.7279 9.20703 19.6948C9.17368 19.6618 9.14246 19.6275 9.11328 19.5923C9.05489 19.5217 9.0046 19.4467 8.96289 19.3657C8.94205 19.3253 8.92391 19.2832 8.90723 19.2397C8.84049 19.066 8.80664 18.8677 8.80664 18.6362V7.52881H23.2168V3.89307H6.93848ZM10.208 12.0249V15.5952H21.6162V12.0249H10.208Z" fill="white"/>
<path d="M49.7679 17.7109C49.7679 18.4382 49.7011 19.0333 49.501 19.6283C49.3009 20.2234 49.1007 20.6861 48.7672 21.149C48.4336 21.6117 48.1001 21.9423 47.6998 22.2729C47.2995 22.6035 46.8992 22.8019 46.4322 23.0002C46.0319 23.1985 45.5649 23.3308 45.1647 23.3969C44.7644 23.463 44.2974 23.5291 43.8971 23.5291H30.0208V19.9589H43.9639C44.631 19.9589 45.1647 19.7605 45.5649 19.3639C45.9652 18.9671 46.1653 18.4382 46.1653 17.7109C46.1653 17.3804 46.0986 17.0498 46.0319 16.7853C45.9652 16.5209 45.7651 16.2564 45.5649 16.058C45.3648 15.8597 45.1647 15.7275 44.8978 15.5953C44.631 15.463 44.2974 15.463 43.9639 15.463H35.6247C35.0243 15.463 34.4239 15.3308 33.7568 15.1325C33.0896 14.9341 32.4225 14.6035 31.8888 14.1407C31.2884 13.6779 30.8214 13.0828 30.4211 12.3556C30.0208 11.6283 29.8207 10.7027 29.8207 9.64481C29.8207 8.58701 30.0208 7.66137 30.4211 6.9341C30.8214 6.20682 31.2884 5.61178 31.8888 5.14897C32.4892 4.68616 33.0896 4.35558 33.7568 4.15724C34.4239 3.95889 35.091 3.82665 35.6247 3.82665H47.8999V7.3969H35.6247C34.9576 7.3969 34.4239 7.59525 34.0236 7.99197C33.6234 8.38861 33.4232 8.91759 33.4232 9.64481C33.4232 10.306 33.6234 10.901 34.0236 11.2977C34.4239 11.6945 34.9576 11.8928 35.6247 11.8928H43.8971C44.2974 11.8928 44.6977 11.9589 45.1647 12.025C45.6316 12.0911 46.0319 12.2895 46.4322 12.4878C46.8325 12.6861 47.2995 12.9507 47.6331 13.2812C48.0334 13.6117 48.3669 13.9423 48.6338 14.4052C48.9673 14.8679 49.1674 15.3308 49.3676 15.8597C49.6344 16.3886 49.7679 17.0498 49.7679 17.7109ZM71.5163 10.4382C71.5163 11.2316 71.3829 11.9589 71.1828 12.6201C70.9826 13.2812 70.7158 13.8101 70.3822 14.339C70.0486 14.8019 69.6483 15.2647 69.1813 15.5953C68.7143 15.9258 68.2473 16.2564 67.7804 16.4547C67.3134 16.6531 66.7797 16.8515 66.3127 16.9176C65.779 17.0498 65.312 17.0498 64.9117 17.0498H63.3773V23.5291H59.7748V17.0498H58.3071C57.8401 17.0498 57.3732 16.9837 56.9062 16.9176C56.3725 16.7853 55.9054 16.6531 55.4384 16.4547C54.9715 16.2564 54.4378 15.9258 54.0375 15.5953C53.5705 15.2647 53.1702 14.8019 52.8367 14.339C52.5031 13.8763 52.2363 13.2812 52.0361 12.6201C51.836 11.9589 51.7026 11.2316 51.7026 10.4382V3.82665H55.305V10.4382C55.305 10.901 55.3717 11.2977 55.5051 11.6945C55.6386 12.0911 55.8387 12.3556 56.1056 12.6201C56.3725 12.8845 56.7061 13.0828 57.1063 13.2151C57.5066 13.3473 57.9069 13.4134 58.3738 13.4134H64.9117C65.2453 13.3473 65.5789 13.2812 65.9792 13.2151C66.3127 13.149 66.6463 12.9507 66.9798 12.7523C67.2467 12.5539 67.5135 12.2234 67.7137 11.8928C67.9138 11.4961 67.9805 11.0333 67.9805 10.3721V3.76054H71.583V10.4382H71.5163ZM93.8649 17.7109C93.8649 18.4382 93.7987 19.0333 93.5984 19.6283C93.3982 20.2234 93.1979 20.6861 92.8644 21.149C92.5979 21.6117 92.1973 21.9423 91.7968 22.2729C91.3971 22.6035 90.9965 22.8019 90.5298 23.0002C90.1292 23.1985 89.6624 23.3308 89.2619 23.3969C88.7951 23.463 88.3946 23.5291 87.994 23.5291H74.0514V19.9589H88.0611C88.7281 19.9589 89.2619 19.7605 89.6624 19.3639C90.0622 18.9671 90.2624 18.4382 90.2624 17.7109C90.2624 17.3804 90.1962 17.0498 90.1292 16.7853C90.0622 16.5209 89.8627 16.2564 89.6624 16.058C89.4622 15.8597 89.2619 15.7275 88.9954 15.5953C88.7281 15.463 88.3946 15.463 88.0611 15.463H79.7887C79.1883 15.463 78.5878 15.3308 77.9207 15.1325C77.2536 14.9341 76.5865 14.6035 76.0528 14.1407C75.4524 13.6779 74.9854 13.0828 74.5851 12.3556C74.1848 11.6283 73.9847 10.7027 73.9847 9.64481C73.9847 8.58701 74.1848 7.66137 74.5851 6.9341C74.9854 6.20682 75.4524 5.61178 76.0528 5.14897C76.6532 4.68616 77.2536 4.35558 77.9207 4.15724C78.5878 3.95889 79.255 3.82665 79.7887 3.82665H92.0641V7.3969H79.7887C79.1216 7.3969 78.5878 7.59525 78.1876 7.99197C77.7873 8.38861 77.5872 8.91759 77.5872 9.64481C77.5872 10.306 77.7873 10.901 78.1876 11.2977C78.5878 11.6945 79.1216 11.8928 79.7887 11.8928H88.0611C88.4616 11.8928 88.8613 11.9589 89.3289 12.025C89.7957 12.0911 90.1962 12.2895 90.596 12.4878C90.9965 12.6861 91.4633 12.9507 91.7968 13.2812C92.1973 13.6117 92.5309 13.9423 92.8644 14.4052C93.1317 14.8679 93.3982 15.3308 93.5984 15.8597C93.7987 16.3886 93.8649 17.0498 93.8649 17.7109Z" fill="#FBFBFB"/>
</svg>
